<?xml version="1.0" encoding="UTF-8"?>
<!DOCTYPE svg PUBLIC "-//W3C//DTD SVG 1.1//EN" "http://www.w3.org/Graphics/SVG/1.1/DTD/svg11.dtd">
<!-- Creator: CorelDRAW 2019 (64-Bit) -->
<svg xmlns="http://www.w3.org/2000/svg" xml:space="preserve" width="276px" height="269px" version="1.1" style="shape-rendering:geometricPrecision; text-rendering:geometricPrecision; image-rendering:optimizeQuality; fill-rule:evenodd; clip-rule:evenodd"
viewBox="0 0 276 268.72"
 xmlns:xlink="http://www.w3.org/1999/xlink">
 <defs>
  <style type="text/css">
   <![CDATA[
    .fil0 {fill:violet}
   ]]>
  </style>
 </defs>
 <g id="Capa_x0020_1">
  <metadata id="CorelCorpID_0Corel-Layer"/>
  <path class="fil0" d="M45.89 228.61c0,4.19 -0.31,39.01 0.23,40.07 1,0.24 1.76,-0.75 2.67,-1.29 0.85,-0.51 1.65,-0.97 2.51,-1.54l40.33 -25.14c3.08,-1.86 7.11,-4.15 10.04,-6.23 2.96,-2.09 3.36,-2.15 6.15,-2.15l98.21 0c1.95,0.01 5.98,-0.06 7.71,-0.43 1.77,-0.38 2.58,-0.21 5.27,-0.82 0.82,-0.18 1.23,-0.09 1.98,-0.17 0.55,-0.07 0.92,-0.36 1.48,-0.51l3.27 -0.81c1.49,-0.26 3.84,-1.27 5.2,-1.78 2.07,-0.8 2.88,-0.99 5.23,-2.17l2.74 -1.36c3.68,-1.74 6.71,-4.1 9.99,-6.45 2.14,-1.53 4.69,-3.83 6.66,-5.74 1.76,-1.71 5.35,-5.65 6.61,-7.62l2.52 -3.57c1.61,-2.52 3.22,-5.15 4.51,-7.88 0.12,-0.23 0.17,-0.47 0.26,-0.67l0.66 -1.36c0.78,-1.64 1.31,-3.63 2,-5.26 0.81,-1.9 1.45,-4.23 1.87,-6.26 0.14,-0.7 0.38,-0.7 0.55,-1.46 0.15,-0.65 0.05,-1.09 0.24,-1.8 0.16,-0.65 0.32,-0.93 0.39,-1.63 0.14,-1.5 0.11,-2.36 0.5,-3.76 0.56,-2.06 0.24,-28.13 0.24,-32.47l-0.01 -73.8c-0.01,-1.83 0.01,-2.01 -0.43,-3.6 -0.23,-0.83 -0.72,-5.86 -1.18,-6.95 -0.37,-0.85 -0.27,-0.63 -0.38,-1.65 -0.11,-0.97 -0.3,-0.85 -0.49,-1.53 -0.16,-0.55 -0.14,-1.17 -0.31,-1.73 -1.35,-4.57 -4.47,-11.61 -7.02,-15.55 -4.08,-6.29 -6.39,-9.5 -11.92,-14.71l-3.28 -3.02c-0.48,-0.43 -0.65,-0.39 -1.23,-0.82 -1.5,-1.08 -3.02,-2.55 -4.67,-3.45 -2.68,-1.46 -5.17,-3.08 -7.9,-4.49l-11.75 -4.56c-0.55,-0.19 -1.13,-0.19 -1.69,-0.35 -0.64,-0.18 -0.67,-0.37 -1.52,-0.5 -0.88,-0.14 -0.86,-0.16 -1.62,-0.4 -1.28,-0.41 -2.69,-0.16 -3.84,-0.43 -1.72,-0.39 -1.73,-0.41 -3.6,-0.49 -1.29,-0.05 -2.56,-0.12 -3.89,-0.13 -2.59,-0.02 -5.24,-0.19 -7.96,-0.19l-130.94 0c-1.27,0 -8.44,0.2 -9.73,0.45 -0.63,0.12 -1,0.35 -1.58,0.43 -1.56,0.2 -2.26,-0.03 -3.77,0.49 -0.79,0.26 -0.97,0.16 -1.7,0.32 -0.9,0.21 -0.52,0.33 -1.5,0.53 -0.67,0.13 -0.94,0.1 -1.66,0.4 -0.73,0.3 -0.83,0.17 -1.63,0.42l-2.95 1.14c-0.79,0.23 -0.86,0.28 -1.49,0.53 -0.55,0.21 -0.92,0.21 -1.54,0.49 -2.32,1.06 -4.61,2.09 -6.79,3.39l-8.73 5.67c-0.91,0.74 -1.51,0.98 -2.34,1.74 -4.27,3.89 -8.54,8.05 -11.87,12.93l-7.41 12.93c-0.46,0.92 -0.7,2.02 -1.11,2.95l-2.43 7.9c-0.13,0.79 -0.33,0.79 -0.52,1.51 -0.15,0.54 -0.12,1.16 -0.25,1.78 -0.1,0.49 -0.33,0.93 -0.42,1.59 -0.21,1.6 -0.03,2.11 -0.45,3.64 -0.68,2.49 -0.31,12.88 -0.31,16.27l0.01 90.07c0,1.39 0.08,2.43 0.39,3.79 0.22,0.93 0.59,5.47 1.21,7.09 0.34,0.87 0.23,0.53 0.4,1.65 0.12,0.76 0.32,0.82 0.52,1.49l3.13 9.05c2.7,5.16 3.64,8.18 7.54,13.01 0.37,0.47 0.57,0.7 0.89,1.15 0.04,0.07 0.1,0.15 0.15,0.22 0.11,0.17 0.12,0.2 0.22,0.34l2.34 2.83c2.06,2.46 4.55,5.09 7.07,7.17 0.49,0.4 0.72,0.5 1.25,0.96l3.45 2.66c3.36,2.71 9.26,5.79 12.98,7.57 0.72,0.34 0.79,0.26 1.51,0.53 0.7,0.26 0.38,0.35 1.41,0.61 0.66,0.17 1.04,0.3 1.32,0.92zm17.22 -12.11c0.05,3.33 -0.33,19.89 0.21,21.68 1.13,-0.44 2.1,-1.26 3.14,-1.93l3.33 -2.02c0.69,-0.48 1.47,-0.96 2.14,-1.38 1.56,-0.98 2.95,-1.82 4.33,-2.71l21.68 -13.64c2.22,-1.45 2.05,-1.49 5.45,-1.49 35.32,0.01 70.65,0.14 105.97,-0.06 6.15,-0.03 2.83,-0.16 6.42,-0.63 3.02,-0.39 1.26,-0.21 2.9,-0.59 0.53,-0.12 0.94,-0.07 1.45,-0.23l4.07 -1.34c2.45,-1.04 5.09,-2 7.46,-3.24 0.68,-0.35 1.52,-0.92 2.19,-1.32 1.72,-1.03 5.14,-3.33 6.54,-4.74 2.41,-2.44 3.13,-2.32 5.88,-5.77 0.35,-0.43 0.56,-0.52 0.93,-0.93 1.01,-1.13 3.34,-4.86 4.24,-6.3l3.08 -5.62c0.2,-0.4 0.35,-0.93 0.53,-1.32l2.85 -9.3c0.1,-0.58 0.03,-1.18 0.1,-1.76 0.13,-1 0.48,-1.75 0.61,-2.88l0.37 -74.1c0,-9.33 0.35,-18.94 -0.28,-28.11 -0.08,-1.14 0.03,-2.34 -0.07,-3.47 -0.12,-1.23 -0.46,-1.72 -0.61,-2.86 -0.09,-0.6 -0.03,-1.05 -0.08,-1.61 -0.06,-0.74 -0.53,-1.69 -0.69,-2.79l-0.7 -2.81c-0.19,-0.62 -0.33,-0.59 -0.54,-1.29 -0.78,-2.63 -2.1,-5.06 -3.32,-7.43 -0.45,-0.88 -0.87,-1.36 -1.3,-2.21 -0.28,-0.53 -0.37,-0.59 -0.64,-1.02l-3.63 -5.23c-0.31,-0.41 -0.41,-0.57 -0.75,-0.93 -0.28,-0.31 -0.6,-0.61 -0.91,-0.94 -4.59,-4.84 -8.08,-7.33 -13.88,-10.9l-2.37 -1.11c-2.13,-0.86 -2.69,-1.25 -5.02,-2.06 -0.59,-0.21 -0.54,-0.33 -1.31,-0.54l-4.12 -1.22c-1.11,-0.24 -1.83,-0.34 -2.9,-0.61l-6.31 -0.68c-42.35,-0.19 -84.71,-0.02 -127.06,-0.02 -4.69,0 -9.38,-0.04 -14.06,0.01 -1.11,0.01 -2.41,-0.05 -3.49,0.04l-7.59 1.25c-0.73,0.16 -0.61,0.34 -1.34,0.49l-2.78 0.72c-1.35,0.33 -3.71,1.4 -5.1,1.93l-1.17 0.54c-0.54,0.25 -0.73,0.34 -1.23,0.59 -2.2,1.09 -3.43,1.96 -5.44,3.25 -5.39,3.45 -9.69,8.04 -13.5,13.14 -2.37,3.17 -3.98,6.57 -5.73,10.17l-1.48 3.87c-0.19,0.45 -0.19,0.83 -0.33,1.32 -0.16,0.56 -0.35,0.72 -0.47,1.36 -0.22,1.21 -0.64,1.89 -0.71,2.91 -0.11,1.58 -0.25,1.79 -0.49,3 -0.92,4.7 -0.51,79.94 -0.51,87.82 0,4.42 -0.23,9.65 0.06,13.91 0.15,2.21 0.3,4.41 0.38,6.62 0.05,1.54 1.04,4.33 1.25,6.08l0.69 2.79c0.39,1.45 2.4,5.77 3.15,7.35 1.19,2.49 2.54,4.28 3.97,6.59l2.18 2.99c1.34,1.82 4.5,5.18 6.09,6.49 3.98,3.31 8.38,6.11 13.06,8.21 0.7,0.31 1.75,0.87 2.37,1.12 1.32,0.53 2.46,1.09 3.86,1.4 0.77,0.16 0.61,0.28 1.29,0.52l2.67 0.84c0.64,0.23 0.41,0.32 1.15,0.52 1,0.27 0.5,0.1 1.34,0.48 0.51,0.23 1.02,0.22 1.43,0.43 0.23,0.11 0.89,0.58 1.1,0.71zm71.41 -182.1c-0.75,0.13 -1.84,0.03 -2.65,0.08 -1.57,0.1 -3.07,0.47 -4.63,0.53 -1.06,0.05 -1.95,0.49 -4.45,0.69l-6.38 1.38c-0.81,0.25 -0.81,0.4 -1.97,0.6 -1,0.17 -1.92,0.68 -2.84,1.04l-1.84 0.72c-0.44,0.14 -0.63,0.05 -1.1,0.22l-13.85 6.89c-1,0.62 -2.4,1.32 -3.23,1.95 -3.71,2.78 -7.44,5.51 -10.69,8.72l-2.61 2.58c-0.26,0.26 -0.33,0.33 -0.61,0.68 -0.85,1.07 -1.67,1.71 -2.51,2.67 -0.81,0.93 -1.59,1.92 -2.3,2.88 -2.4,3.24 -4.19,5.69 -6.28,9.25l-3.15 5.9c-0.2,0.41 -0.23,0.34 -0.43,0.84l-2.01 4.54c-0.22,1.14 -1.54,3.95 -2.02,5.7 -0.2,0.7 -0.2,0.34 -0.41,0.89l-0.87 4.3c-0.16,0.8 -0.53,0.67 -0.65,1.9 -0.14,1.56 -0.38,1.11 -0.54,2.05 -0.18,1.07 -0.12,2.46 -0.47,3.43 -0.38,1.08 -0.13,2.48 -0.41,3.53 -0.98,3.79 -0.51,13.15 -0.05,17.27 0.1,0.89 0.17,1.45 0.21,2.36 0.07,1.31 0.32,1.35 0.48,2.23 0.14,0.75 0.13,1.6 0.21,2.38l3.77 12.99c0.87,2.72 2.2,6.21 3.6,8.63 1.52,2.62 3.76,7.34 5.49,9.5 1.92,2.39 3.52,5.06 5.61,7.32l3.75 4.02c1.01,1.01 1.59,1.67 2.6,2.59l10.03 8.09 6.39 3.98c3.02,1.21 5.7,3.01 8.69,4.27 1.26,0.52 2.59,0.72 3.84,1.32l3.82 1.36c0.74,0.24 1.34,0.24 2.05,0.54l6.24 1.52c0.82,0.11 1.48,0.15 2.31,0.23 0.96,0.09 1.27,0.39 2.08,0.5 4.93,0.67 10,0.72 14.93,0.58 1.74,-0.05 3.36,-0.1 4.94,-0.39 0.83,-0.15 1.5,-0.09 2.4,-0.19 0.92,-0.09 1.34,-0.39 2.1,-0.49 0.76,-0.1 1.59,-0.1 2.38,-0.2 0.97,-0.11 0.83,-0.41 2.04,-0.54l4.08 -1.06c0.71,-0.3 1.37,-0.16 2.17,-0.43l5.75 -2c1.22,-0.64 2.56,-0.91 4.56,-1.94l10.32 -5.59c3.09,-1.91 6.08,-4.06 8.74,-6.41l2.09 -1.79c0.88,-0.79 1.7,-1.75 2.69,-2.48 0.95,-0.7 1.6,-1.73 2.53,-2.67 0.41,-0.43 0.9,-0.88 1.28,-1.3l4.63 -5.74c0.42,-0.6 0.67,-0.84 1.14,-1.44 0.76,-0.99 1.4,-2.02 2.07,-3.1 0.25,-0.39 0.26,-0.48 0.47,-0.83l3.79 -6.58c0.22,-0.48 0.25,-0.41 0.46,-0.82 0.14,-0.26 0.08,-0.2 0.17,-0.39l0.24 -0.5c0.35,-0.66 0.1,-0.07 0.38,-0.91 0.21,-0.6 0.16,-0.36 0.44,-0.84 0.96,-1.68 1.73,-4.64 2.61,-6.48l0.97 -2.93c0.19,-0.63 0.22,-0.37 0.4,-0.88l0.96 -4.21c0.66,-1.99 1.11,-4.35 1.23,-6.52 0.05,-0.93 0.43,-1.22 0.52,-2.05 0.72,-6.81 1.13,-12.84 0.22,-19.6 -0.34,-2.49 -0.12,-1.77 -0.67,-4.48 -0.24,-1.18 -0.14,-3.27 -0.92,-5.55 -0.17,-0.48 -0.24,-0.38 -0.37,-0.91 -0.23,-0.97 -0.06,-1.19 -0.49,-2.11 -0.43,-0.91 -0.16,-1.21 -0.45,-2.13 -0.17,-0.52 -0.25,-0.46 -0.4,-0.89l-0.64 -1.94c-0.35,-0.86 -0.53,-2.04 -0.97,-2.92 -0.68,-1.35 -0.92,-2.69 -1.51,-3.68l-4.11 -8.12c-0.04,-0.05 -0.27,-0.39 -0.3,-0.44 -0.26,-0.4 -0.25,-0.43 -0.46,-0.83 -0.18,-0.34 -0.06,-0.13 -0.21,-0.35l-4.45 -6.61c-1.54,-1.99 -2.95,-3.91 -4.66,-5.72 -1.62,-1.71 -3.27,-3.69 -5.1,-5.25l-8.52 -7.01c-0.75,-0.58 -1.41,-1.19 -2.25,-1.63l-3.97 -2.51c-0.43,-0.24 -0.5,-0.17 -0.92,-0.4 -1.28,-0.7 -2.75,-1.71 -4.17,-2.29l-1.77 -0.81c-0.64,-0.25 -1.09,-0.5 -1.75,-0.83l-8.51 -3.17c-0.62,-0.22 -0.24,-0.21 -0.87,-0.42 -0.83,-0.29 -1.39,-0.05 -2.18,-0.41 -0.88,-0.41 -1.11,-0.27 -2,-0.58 -2.31,-0.8 -4.05,-0.95 -6.53,-1.21 -0.8,-0.08 -1.24,-0.42 -2.06,-0.51l-4.67 -0.51c-2.11,-0.26 -8.06,-0.44 -10.04,-0.12zm8.73 116.24l24.31 0.02c0.15,-0.29 0.62,-1.17 0.66,-1.3 0.21,-0.66 0.01,-1.19 0.24,-1.81 0.32,-0.85 0.32,-0.14 0.48,-1.57 0.35,-3.15 0.63,-1.75 0.67,-3.37 0.02,-0.68 0.03,-1.26 0.19,-1.84l1.07 -7.05c0.04,-3.43 0.71,-4.36 0.71,-7.39 -0.01,-5.32 1.15,-4.03 -6.98,-4.03 -5.2,0 -17.72,-0.3 -21.37,0.04 -0.21,1.21 -0.19,27.09 0.02,28.3zm-34.5 0.02c7.64,0 15.29,0 22.93,0 1.1,0 1.12,-0.1 1.12,-1.21 0,-8.37 0.18,-18.89 -0.01,-27 -2.76,-0.47 -23.29,-0.15 -27.76,-0.15 -0.86,0 -0.64,0.49 -0.62,1.43 0.05,2.13 -0.01,3.94 0.23,6.09 0.13,1.18 0.47,2.22 0.49,3.72 0.03,1.92 0.27,2.19 0.51,3.7 0.2,1.26 0.15,2.41 0.49,3.57 0.4,1.37 0.15,2.14 0.67,3.57 0.61,1.7 -0.14,0.82 0.74,3.32 0.38,1.1 0.05,2.52 1.21,2.96zm-3.7 -38.6l26.63 0c1.19,0 1.12,-0.09 1.12,-1.27 0,-4.69 0.2,-23.81 -0.05,-26.94l-23.63 0c-1.45,0 -1.32,1.22 -1.46,2.53 -0.13,1.08 -0.26,0.77 -0.47,1.56 -0.19,0.71 -0.06,1.12 -0.34,1.89 -0.61,1.62 -0.22,2.07 -0.55,3.5 -0.41,1.79 -0.37,0.26 -0.63,3.59 -0.11,1.36 -0.53,1.87 -0.54,3.5 -0.01,1.47 -0.08,2.52 -0.43,3.9 -0.29,1.16 -0.25,4.61 -0.29,6.11 -0.01,0.91 -0.24,1.63 0.64,1.63zm38.11 -0.05l28.39 0.05c0.42,-5.57 -0.61,-7.72 -0.68,-11.25 -0.08,-3.49 -0.19,-1.65 -0.49,-3.58 -0.36,-2.42 -1.73,-11.88 -2.84,-13.38l-24.29 0 -0.09 28.16zm-69 38.65c6.84,0 16.53,0.19 23.03,-0.02 0.3,-1.22 -1.2,-6.41 -1.5,-8.28 -0.1,-0.66 -0.01,-1.31 -0.1,-1.96 -0.08,-0.64 -0.36,-1 -0.46,-1.55l-1.27 -12.74c-0.14,-1.49 0.05,-2.33 -0.29,-3.8 -8.48,-0.16 -18.48,-0.01 -27.13,-0.01 -1.14,0 -0.45,2.35 -0.17,3.58 0.29,1.31 0.12,3.38 0.41,4.22l1.05 3.54c0.15,0.67 0.09,1.42 0.27,2.13l1.76 5.34c0.23,1.05 0.37,0.76 0.61,1.59 0.32,1.12 2.88,7.63 3.79,7.96zm104.75 -0.02l23.24 0.02c0.63,-1 1.07,-1.9 1.5,-3.05 0.32,-0.86 0.09,-0.2 0.39,-0.74 0.08,-0.13 0.01,0.08 0.19,-0.38 0.02,-0.06 0.09,-0.33 0.12,-0.43 0.36,-1.13 1.08,-2.22 1.31,-3.29l2.33 -6.89c0.32,-0.68 0.2,-1.14 0.34,-2.06l0.94 -3.7c0.34,-0.72 0.33,-3.22 0.39,-4.17 0.07,-1.22 1.33,-3.65 -0.11,-3.65l-26.63 0c-0.76,0 -0.6,0.52 -0.67,1.32 -0.19,2.16 0.13,1.45 -0.36,3.7 -0.25,1.12 0.11,4.88 -0.66,7.48 -0.2,0.69 -0.12,1.11 -0.15,1.89l-1.76 10.43c-0.33,0.78 -0.47,2.47 -0.41,3.52zm3.5 -38.61l27.68 0.03c0.24,-1.41 -0.32,-2.62 -0.45,-3.87 -0.39,-3.66 -0.1,-2.43 -0.9,-6.06 -0.14,-0.67 -0.41,-0.96 -0.5,-1.71 -0.55,-4.58 -1.28,-4.4 -1.95,-7.08 -0.52,-2.06 -3.12,-7.84 -4.14,-9.47l-23.36 -0.02c-0.05,0.42 0.33,2.68 0.46,3.22 0.28,1.18 0.44,2.37 0.69,3.41 0.74,3.05 0.22,1.43 0.48,3.42 0.14,1.07 0.48,1.04 0.64,3.4 0.1,1.42 0.14,2.2 0.4,3.48l0.95 11.25zm-116.39 0.03l27.58 0c0.23,-1.29 0.21,-2.29 0.24,-3.68 0.02,-1.34 0.37,-2.4 0.49,-3.52 0.14,-1.3 -0.01,-2.62 0.16,-3.91 0.17,-1.38 0.37,-2.03 0.49,-3.62 0.26,-3.39 0.36,-1.97 0.6,-3.22 0.26,-1.31 -0.06,-2.2 0.45,-3.62 0.41,-1.11 0.28,-2.08 0.7,-3.35l0.66 -3.27 -23.6 -0.02 -2.08 4.53c-0.71,1.74 -0.66,1.16 -1.32,3.29 -0.24,0.78 -0.37,0.47 -0.61,1.58l-1.24 3.37c-0.2,0.85 -0.03,0.91 -0.38,1.88 -0.3,0.82 -0.23,1.01 -0.4,1.88 -0.15,0.8 -0.37,0.66 -0.52,1.69 -0.11,0.76 -0.12,1.27 -0.37,2 -0.49,1.46 -0.25,2.61 -0.5,4.14 -0.22,1.4 -0.71,2.22 -0.35,3.85zm77.14 76.43c0.69,-0.13 1.47,-0.66 2.06,-0.93 3.13,-1.48 6.16,-4.35 8.42,-6.92 0.48,-0.55 0.67,-0.96 1.3,-1.65 1.13,-1.24 3.8,-5.7 4.8,-7.4 0.53,-0.91 3.64,-7.2 3.94,-8.27 0.18,-0.66 0.04,-0.51 0.39,-1.11 0.08,-0.15 0.16,-0.11 0.25,-0.46 0.19,-0.79 -0.18,-0.84 -1.18,-0.85 -0.42,-0.01 -0.88,0.01 -1.31,0.01 -4.17,0.01 -16.32,-0.2 -18.62,0.05l-0.05 27.53zm-31.46 -115.08c1.66,0.12 20.56,0.22 20.93,-0.15 0.27,-0.52 0.43,-25.4 0.09,-27.32 -0.52,0.52 -0.37,0.12 -1.9,0.93 -2.57,1.35 -4.81,3.07 -6.86,5.15l-4.15 5.09c-0.81,1.17 -1.55,2.4 -2.4,3.72 -0.39,0.59 -0.77,1.26 -1.1,1.87 -0.2,0.37 -0.38,0.65 -0.52,0.94 -0.26,0.51 -0.29,0.68 -0.54,1.12l-2.83 6.22c-0.24,0.68 -0.11,0.45 -0.43,1.05 -0.35,0.67 -0.36,0.57 -0.29,1.38zm21.06 114.9l0.05 -27.24c-1.55,-0.28 -19.26,-0.32 -21.06,-0.1 -0.27,0.99 0.53,2.12 1.04,3.3 0.67,1.53 0.09,0.66 1.37,3.07l3.23 6.03c1.15,1.7 0.08,0.68 2.38,3.71l2.57 3.34c0.49,0.59 0.9,1.14 1.33,1.63 1.66,1.87 5.41,4.9 7.77,5.95 0.47,0.21 0.89,0.17 1.32,0.31zm10.39 -114.92l21.23 0.05c0.01,-0.97 -0.75,-2.35 -1.17,-3.24 -0.21,-0.45 -0.23,-0.82 -0.42,-1.25 -0.25,-0.59 -0.75,-1.43 -0.97,-1.97l-4.92 -8.78 -3.32 -4.44c-0.98,-1.17 -2.07,-2.19 -3,-3.11 -1.56,-1.54 -3.4,-2.73 -5.31,-3.74l-2.06 -1.02 -0.06 27.5zm-62.71 87.7c1.24,1.18 1.56,1.94 2.22,2.79l1.66 1.85c1.99,2.24 2.99,3.12 5.1,5.08l6.74 5.49c1.46,0.89 3.1,2.2 4.31,2.7 0.84,0.34 1.16,0.78 2.14,1.36l6.31 3.16c1.1,0.29 2.8,1.18 3.22,1.25 -0.25,-1.04 -0.31,-0.71 -0.87,-1.41l-5.06 -8.43 -5.35 -12.77c-0.15,-0.59 -0.4,-1.25 -1.17,-1.25 -3.79,0 -16.43,-0.23 -19.25,0.18zm83.45 23.63c0.74,-0.14 0.25,-0.23 1.11,-0.46 2.46,-0.67 1.26,-0.39 3.68,-1.5 1.97,-0.9 7.29,-3.81 8.92,-4.96 1.42,-1.01 2.79,-1.87 4.15,-2.91l5.58 -4.75c0.26,-0.25 0.59,-0.62 0.83,-0.85 2.22,-2.17 4.01,-3.89 5.87,-6.33 0.39,-0.52 1.17,-1.51 1.57,-1.81 -0.61,-0.21 -0.48,-0.24 -1.22,-0.24l-18.12 0c-1.08,0 -1.02,1.3 -1.31,2.02l-0.59 1.62c-0.66,2.1 -1.67,3.95 -2.37,5.64 -0.28,0.7 -0.39,0.9 -0.66,1.53 -0.38,0.89 -0.46,0.81 -0.77,1.64 -0.79,2.1 -2.29,4.08 -3.18,5.85 -1,2 -2.66,3.91 -3.49,5.51zm11.97 -111.27l19.41 -0.01c-1.12,-2.25 -2.83,-3.91 -4.51,-5.64 -1.4,-1.45 -4.63,-4.8 -6.09,-5.93 -0.82,-0.65 -1.7,-1.03 -2.92,-2.26 -0.81,-0.82 -4.93,-3.28 -6.08,-4.1 -1.26,-0.89 -8.77,-4.85 -10.32,-5.23 -0.6,-0.14 -0.82,-0.32 -1.28,-0.5 0.35,1.06 1,1.82 1.64,2.76l2.94 4.83c0.48,1.05 1.14,1.93 1.91,3.62 0.52,1.15 0.9,1.72 1.37,3.04 0.54,1.57 1.25,2.15 1.96,4.77 0.27,1 0.31,0.3 0.58,1.64 0.2,0.99 1.01,2.13 1.39,3.01zm-95.45 -0.03l19.46 0.03c0.58,-0.28 0.76,-0.72 0.97,-1.28 0.28,-0.77 0.52,-0.89 0.67,-1.55 0.27,-1.22 0.17,-0.77 0.55,-1.66 0.43,-0.99 0.01,-0.56 1.28,-3.15l0.7 -1.52c0.15,-0.33 0.14,-0.47 0.3,-0.8 0.19,-0.41 0.22,-0.32 0.38,-0.71 1.13,-2.86 1.42,-3.36 3.07,-6.03 1.18,-1.9 0.91,-1.73 2.51,-4.14 0.58,-0.87 1.45,-1.97 1.81,-2.85 -1.13,0.19 0.09,0.18 -1.16,0.51 -2.75,0.73 -4.48,1.96 -7.03,3.17 -0.67,0.32 -0.6,0.26 -1.21,0.64l-10.25 6.95c-0.31,0.25 -0.59,0.51 -0.91,0.74l-1.06 0.79c-2.48,2.29 -6.52,6.41 -8.55,8.84l-1.09 1.52c-0.18,0.24 -0.24,0.32 -0.44,0.5z"/>
 </g>
</svg>
